<mxfile host="app.diagrams.net" agent="Mozilla/5.0 (X11; Linux x86_64) AppleWebKit/537.36 (KHTML, like Gecko) Chrome/126.0.0.0 Safari/537.36" version="24.7.17">
  <diagram name="PÃ¡gina-1" id="UCQL1p7SWsDMgodWyceP">
    <mxGraphModel dx="1621" dy="724" grid="1" gridSize="10" guides="1" tooltips="1" connect="1" arrows="1" fold="1" page="1" pageScale="1" pageWidth="827" pageHeight="1169" math="0" shadow="0">
      <root>
        <mxCell id="0" />
        <mxCell id="1" parent="0" />
        <mxCell id="uDFf4PMlCEzV2VISxM60-1" value="Empleado" style="whiteSpace=wrap;html=1;" vertex="1" parent="1">
          <mxGeometry x="40" y="180" width="120" height="60" as="geometry" />
        </mxCell>
        <mxCell id="uDFf4PMlCEzV2VISxM60-2" value="nominas" style="rounded=0;whiteSpace=wrap;html=1;" vertex="1" parent="1">
          <mxGeometry x="414" y="180" width="120" height="60" as="geometry" />
        </mxCell>
        <mxCell id="uDFf4PMlCEzV2VISxM60-3" value="" style="ellipse;whiteSpace=wrap;html=1;fillColor=#000000;" vertex="1" parent="1">
          <mxGeometry x="-10" y="200" width="20" height="20" as="geometry" />
        </mxCell>
        <mxCell id="uDFf4PMlCEzV2VISxM60-4" value="" style="ellipse;whiteSpace=wrap;html=1;" vertex="1" parent="1">
          <mxGeometry x="85" y="130" width="20" height="20" as="geometry" />
        </mxCell>
        <mxCell id="uDFf4PMlCEzV2VISxM60-5" value="Num empleado" style="text;html=1;align=center;verticalAlign=middle;resizable=0;points=[];autosize=1;strokeColor=none;fillColor=none;" vertex="1" parent="1">
          <mxGeometry x="-140" y="195" width="100" height="30" as="geometry" />
        </mxCell>
        <mxCell id="uDFf4PMlCEzV2VISxM60-6" value="NIF" style="text;html=1;align=center;verticalAlign=middle;resizable=0;points=[];autosize=1;strokeColor=none;fillColor=none;" vertex="1" parent="1">
          <mxGeometry x="85" y="110" width="40" height="30" as="geometry" />
        </mxCell>
        <mxCell id="uDFf4PMlCEzV2VISxM60-7" value="" style="ellipse;whiteSpace=wrap;html=1;" vertex="1" parent="1">
          <mxGeometry x="60" y="20" width="30" height="30" as="geometry" />
        </mxCell>
        <mxCell id="uDFf4PMlCEzV2VISxM60-9" value="nombre" style="text;html=1;align=center;verticalAlign=middle;resizable=0;points=[];autosize=1;strokeColor=none;fillColor=none;" vertex="1" parent="1">
          <mxGeometry x="140" y="110" width="60" height="30" as="geometry" />
        </mxCell>
        <mxCell id="uDFf4PMlCEzV2VISxM60-11" value="numero de hijos" style="text;html=1;align=center;verticalAlign=middle;resizable=0;points=[];autosize=1;strokeColor=none;fillColor=none;" vertex="1" parent="1">
          <mxGeometry x="-40" y="100" width="110" height="30" as="geometry" />
        </mxCell>
        <mxCell id="uDFf4PMlCEzV2VISxM60-13" value="Porcentaje" style="text;html=1;align=center;verticalAlign=middle;resizable=0;points=[];autosize=1;strokeColor=none;fillColor=none;" vertex="1" parent="1">
          <mxGeometry x="170" y="125" width="80" height="30" as="geometry" />
        </mxCell>
        <mxCell id="uDFf4PMlCEzV2VISxM60-14" value="" style="ellipse;whiteSpace=wrap;html=1;" vertex="1" parent="1">
          <mxGeometry x="130" y="130" width="20" height="20" as="geometry" />
        </mxCell>
        <mxCell id="uDFf4PMlCEzV2VISxM60-15" style="edgeStyle=orthogonalEdgeStyle;rounded=0;orthogonalLoop=1;jettySize=auto;html=1;exitX=0.5;exitY=0;exitDx=0;exitDy=0;entryX=1;entryY=1;entryDx=0;entryDy=0;" edge="1" parent="1" source="uDFf4PMlCEzV2VISxM60-3" target="uDFf4PMlCEzV2VISxM60-3">
          <mxGeometry relative="1" as="geometry" />
        </mxCell>
        <mxCell id="uDFf4PMlCEzV2VISxM60-22" value="" style="ellipse;whiteSpace=wrap;html=1;" vertex="1" parent="1">
          <mxGeometry x="20" y="135" width="20" height="20" as="geometry" />
        </mxCell>
        <mxCell id="uDFf4PMlCEzV2VISxM60-23" value="" style="ellipse;whiteSpace=wrap;html=1;" vertex="1" parent="1">
          <mxGeometry x="160" y="150" width="20" height="20" as="geometry" />
        </mxCell>
        <mxCell id="uDFf4PMlCEzV2VISxM60-26" value="" style="ellipse;whiteSpace=wrap;html=1;" vertex="1" parent="1">
          <mxGeometry x="-10" y="280" width="20" height="20" as="geometry" />
        </mxCell>
        <mxCell id="uDFf4PMlCEzV2VISxM60-27" value="banco" style="text;html=1;align=center;verticalAlign=middle;resizable=0;points=[];autosize=1;strokeColor=none;fillColor=none;" vertex="1" parent="1">
          <mxGeometry x="-130" y="340" width="60" height="30" as="geometry" />
        </mxCell>
        <mxCell id="uDFf4PMlCEzV2VISxM60-28" value="" style="ellipse;whiteSpace=wrap;html=1;" vertex="1" parent="1">
          <mxGeometry x="-120" y="288" width="20" height="20" as="geometry" />
        </mxCell>
        <mxCell id="uDFf4PMlCEzV2VISxM60-29" value="surcursal" style="text;html=1;align=center;verticalAlign=middle;resizable=0;points=[];autosize=1;strokeColor=none;fillColor=none;" vertex="1" parent="1">
          <mxGeometry x="-155" y="258" width="70" height="30" as="geometry" />
        </mxCell>
        <mxCell id="uDFf4PMlCEzV2VISxM60-30" value="" style="ellipse;whiteSpace=wrap;html=1;" vertex="1" parent="1">
          <mxGeometry x="-110" y="320" width="20" height="20" as="geometry" />
        </mxCell>
        <mxCell id="uDFf4PMlCEzV2VISxM60-31" value="cuenta" style="text;html=1;align=center;verticalAlign=middle;resizable=0;points=[];autosize=1;strokeColor=none;fillColor=none;" vertex="1" parent="1">
          <mxGeometry x="-15" y="300" width="60" height="30" as="geometry" />
        </mxCell>
        <mxCell id="uDFf4PMlCEzV2VISxM60-32" value="" style="ellipse;whiteSpace=wrap;html=1;" vertex="1" parent="1">
          <mxGeometry x="-60" y="345" width="20" height="20" as="geometry" />
        </mxCell>
        <mxCell id="uDFf4PMlCEzV2VISxM60-33" value="num cuenta" style="text;html=1;align=center;verticalAlign=middle;resizable=0;points=[];autosize=1;strokeColor=none;fillColor=none;" vertex="1" parent="1">
          <mxGeometry x="-95" y="368" width="90" height="30" as="geometry" />
        </mxCell>
        <mxCell id="uDFf4PMlCEzV2VISxM60-36" value="" style="endArrow=none;html=1;rounded=0;entryX=0;entryY=1;entryDx=0;entryDy=0;exitX=1;exitY=0.5;exitDx=0;exitDy=0;" edge="1" parent="1" source="uDFf4PMlCEzV2VISxM60-28" target="uDFf4PMlCEzV2VISxM60-26">
          <mxGeometry width="50" height="50" relative="1" as="geometry">
            <mxPoint x="-80" y="320" as="sourcePoint" />
            <mxPoint x="-20" y="280" as="targetPoint" />
          </mxGeometry>
        </mxCell>
        <mxCell id="uDFf4PMlCEzV2VISxM60-37" value="" style="endArrow=none;html=1;rounded=0;entryX=0;entryY=1;entryDx=0;entryDy=0;exitX=1;exitY=0.5;exitDx=0;exitDy=0;" edge="1" parent="1" source="uDFf4PMlCEzV2VISxM60-30" target="uDFf4PMlCEzV2VISxM60-26">
          <mxGeometry width="50" height="50" relative="1" as="geometry">
            <mxPoint x="-70" y="360" as="sourcePoint" />
            <mxPoint x="-20" y="310" as="targetPoint" />
          </mxGeometry>
        </mxCell>
        <mxCell id="uDFf4PMlCEzV2VISxM60-38" value="" style="endArrow=none;html=1;rounded=0;entryX=0;entryY=1;entryDx=0;entryDy=0;exitX=1;exitY=0;exitDx=0;exitDy=0;" edge="1" parent="1" source="uDFf4PMlCEzV2VISxM60-32" target="uDFf4PMlCEzV2VISxM60-26">
          <mxGeometry width="50" height="50" relative="1" as="geometry">
            <mxPoint x="-50" y="370" as="sourcePoint" />
            <mxPoint x="-10" y="300" as="targetPoint" />
          </mxGeometry>
        </mxCell>
        <mxCell id="uDFf4PMlCEzV2VISxM60-39" value="" style="endArrow=none;html=1;rounded=0;exitX=1;exitY=0;exitDx=0;exitDy=0;entryX=0;entryY=1;entryDx=0;entryDy=0;" edge="1" parent="1" source="uDFf4PMlCEzV2VISxM60-26" target="uDFf4PMlCEzV2VISxM60-1">
          <mxGeometry width="50" height="50" relative="1" as="geometry">
            <mxPoint x="-5" y="288" as="sourcePoint" />
            <mxPoint x="45" y="238" as="targetPoint" />
          </mxGeometry>
        </mxCell>
        <mxCell id="uDFf4PMlCEzV2VISxM60-40" value="" style="endArrow=none;html=1;rounded=0;entryX=1;entryY=1;entryDx=0;entryDy=0;exitX=0;exitY=0;exitDx=0;exitDy=0;" edge="1" parent="1" source="uDFf4PMlCEzV2VISxM60-1" target="uDFf4PMlCEzV2VISxM60-22">
          <mxGeometry width="50" height="50" relative="1" as="geometry">
            <mxPoint x="-90" y="200" as="sourcePoint" />
            <mxPoint x="40" y="160" as="targetPoint" />
          </mxGeometry>
        </mxCell>
        <mxCell id="uDFf4PMlCEzV2VISxM60-42" value="" style="endArrow=none;html=1;rounded=0;entryX=0.5;entryY=1;entryDx=0;entryDy=0;exitX=0.358;exitY=0.033;exitDx=0;exitDy=0;exitPerimeter=0;" edge="1" parent="1" source="uDFf4PMlCEzV2VISxM60-1" target="uDFf4PMlCEzV2VISxM60-4">
          <mxGeometry width="50" height="50" relative="1" as="geometry">
            <mxPoint x="50" y="200" as="sourcePoint" />
            <mxPoint x="100" y="150" as="targetPoint" />
          </mxGeometry>
        </mxCell>
        <mxCell id="uDFf4PMlCEzV2VISxM60-43" value="" style="endArrow=none;html=1;rounded=0;entryX=0.5;entryY=1;entryDx=0;entryDy=0;exitX=0.692;exitY=0.05;exitDx=0;exitDy=0;exitPerimeter=0;" edge="1" parent="1" source="uDFf4PMlCEzV2VISxM60-1" target="uDFf4PMlCEzV2VISxM60-14">
          <mxGeometry width="50" height="50" relative="1" as="geometry">
            <mxPoint x="140" y="310" as="sourcePoint" />
            <mxPoint x="190" y="260" as="targetPoint" />
          </mxGeometry>
        </mxCell>
        <mxCell id="uDFf4PMlCEzV2VISxM60-44" value="" style="endArrow=none;html=1;rounded=0;entryX=0;entryY=1;entryDx=0;entryDy=0;exitX=0.867;exitY=-0.017;exitDx=0;exitDy=0;exitPerimeter=0;" edge="1" parent="1" source="uDFf4PMlCEzV2VISxM60-1" target="uDFf4PMlCEzV2VISxM60-23">
          <mxGeometry width="50" height="50" relative="1" as="geometry">
            <mxPoint x="150" y="190" as="sourcePoint" />
            <mxPoint x="170" y="200" as="targetPoint" />
          </mxGeometry>
        </mxCell>
        <mxCell id="uDFf4PMlCEzV2VISxM60-45" value="e d" style="rhombus;whiteSpace=wrap;html=1;" vertex="1" parent="1">
          <mxGeometry x="250" y="192.5" width="80" height="35" as="geometry" />
        </mxCell>
        <mxCell id="uDFf4PMlCEzV2VISxM60-46" value="" style="endArrow=none;html=1;rounded=0;exitX=1;exitY=0.5;exitDx=0;exitDy=0;entryX=0;entryY=0.5;entryDx=0;entryDy=0;" edge="1" parent="1" source="uDFf4PMlCEzV2VISxM60-1" target="uDFf4PMlCEzV2VISxM60-45">
          <mxGeometry width="50" height="50" relative="1" as="geometry">
            <mxPoint x="180" y="240" as="sourcePoint" />
            <mxPoint x="230" y="190" as="targetPoint" />
          </mxGeometry>
        </mxCell>
        <mxCell id="uDFf4PMlCEzV2VISxM60-47" value="" style="endArrow=classic;html=1;rounded=0;exitX=1;exitY=0.5;exitDx=0;exitDy=0;entryX=0;entryY=0.5;entryDx=0;entryDy=0;" edge="1" parent="1" source="uDFf4PMlCEzV2VISxM60-45" target="uDFf4PMlCEzV2VISxM60-2">
          <mxGeometry width="50" height="50" relative="1" as="geometry">
            <mxPoint x="350" y="250" as="sourcePoint" />
            <mxPoint x="400" y="200" as="targetPoint" />
          </mxGeometry>
        </mxCell>
        <mxCell id="uDFf4PMlCEzV2VISxM60-49" value="trabaja" style="rhombus;whiteSpace=wrap;html=1;" vertex="1" parent="1">
          <mxGeometry x="60" y="315" width="80" height="35" as="geometry" />
        </mxCell>
        <mxCell id="uDFf4PMlCEzV2VISxM60-50" value="departamento" style="whiteSpace=wrap;html=1;" vertex="1" parent="1">
          <mxGeometry x="40" y="410" width="120" height="60" as="geometry" />
        </mxCell>
        <mxCell id="uDFf4PMlCEzV2VISxM60-51" value="" style="endArrow=none;html=1;rounded=0;entryX=0.5;entryY=1;entryDx=0;entryDy=0;exitX=0.5;exitY=0;exitDx=0;exitDy=0;" edge="1" parent="1" source="uDFf4PMlCEzV2VISxM60-49" target="uDFf4PMlCEzV2VISxM60-1">
          <mxGeometry width="50" height="50" relative="1" as="geometry">
            <mxPoint x="10" y="410" as="sourcePoint" />
            <mxPoint x="60" y="360" as="targetPoint" />
          </mxGeometry>
        </mxCell>
        <mxCell id="uDFf4PMlCEzV2VISxM60-52" value="" style="endArrow=classic;html=1;rounded=0;exitX=0.5;exitY=1;exitDx=0;exitDy=0;entryX=0.5;entryY=0;entryDx=0;entryDy=0;" edge="1" parent="1" source="uDFf4PMlCEzV2VISxM60-49" target="uDFf4PMlCEzV2VISxM60-50">
          <mxGeometry width="50" height="50" relative="1" as="geometry">
            <mxPoint x="100" y="400" as="sourcePoint" />
            <mxPoint x="150" y="350" as="targetPoint" />
          </mxGeometry>
        </mxCell>
        <mxCell id="uDFf4PMlCEzV2VISxM60-53" value="" style="ellipse;whiteSpace=wrap;html=1;fillColor=#000000;" vertex="1" parent="1">
          <mxGeometry x="-5" y="430" width="20" height="20" as="geometry" />
        </mxCell>
        <mxCell id="uDFf4PMlCEzV2VISxM60-54" value="COD_departamento" style="text;html=1;align=center;verticalAlign=middle;resizable=0;points=[];autosize=1;strokeColor=none;fillColor=none;" vertex="1" parent="1">
          <mxGeometry x="-130" y="425" width="130" height="30" as="geometry" />
        </mxCell>
        <mxCell id="uDFf4PMlCEzV2VISxM60-55" value="" style="ellipse;whiteSpace=wrap;html=1;" vertex="1" parent="1">
          <mxGeometry x="210" y="430" width="20" height="20" as="geometry" />
        </mxCell>
        <mxCell id="uDFf4PMlCEzV2VISxM60-56" value="nombre" style="text;html=1;align=center;verticalAlign=middle;resizable=0;points=[];autosize=1;strokeColor=none;fillColor=none;" vertex="1" parent="1">
          <mxGeometry x="240" y="425" width="60" height="30" as="geometry" />
        </mxCell>
        <mxCell id="uDFf4PMlCEzV2VISxM60-61" style="edgeStyle=orthogonalEdgeStyle;rounded=0;orthogonalLoop=1;jettySize=auto;html=1;exitX=0.5;exitY=1;exitDx=0;exitDy=0;" edge="1" parent="1" source="uDFf4PMlCEzV2VISxM60-57" target="uDFf4PMlCEzV2VISxM60-58">
          <mxGeometry relative="1" as="geometry" />
        </mxCell>
        <mxCell id="uDFf4PMlCEzV2VISxM60-57" value="pertenece" style="rhombus;whiteSpace=wrap;html=1;" vertex="1" parent="1">
          <mxGeometry x="60" y="530" width="80" height="35" as="geometry" />
        </mxCell>
        <mxCell id="uDFf4PMlCEzV2VISxM60-58" value="sede" style="whiteSpace=wrap;html=1;" vertex="1" parent="1">
          <mxGeometry x="40" y="630" width="120" height="60" as="geometry" />
        </mxCell>
        <mxCell id="uDFf4PMlCEzV2VISxM60-59" value="" style="endArrow=none;html=1;rounded=0;entryX=0.5;entryY=1;entryDx=0;entryDy=0;exitX=0.5;exitY=0;exitDx=0;exitDy=0;" edge="1" parent="1" source="uDFf4PMlCEzV2VISxM60-57" target="uDFf4PMlCEzV2VISxM60-50">
          <mxGeometry width="50" height="50" relative="1" as="geometry">
            <mxPoint x="60" y="550" as="sourcePoint" />
            <mxPoint x="110" y="500" as="targetPoint" />
          </mxGeometry>
        </mxCell>
        <mxCell id="uDFf4PMlCEzV2VISxM60-62" value="ingreso total" style="text;html=1;align=center;verticalAlign=middle;resizable=0;points=[];autosize=1;strokeColor=none;fillColor=none;" vertex="1" parent="1">
          <mxGeometry x="365" y="98" width="90" height="30" as="geometry" />
        </mxCell>
        <mxCell id="uDFf4PMlCEzV2VISxM60-63" value="Descuento total" style="text;html=1;align=center;verticalAlign=middle;resizable=0;points=[];autosize=1;strokeColor=none;fillColor=none;" vertex="1" parent="1">
          <mxGeometry x="445" y="98" width="110" height="30" as="geometry" />
        </mxCell>
        <mxCell id="uDFf4PMlCEzV2VISxM60-64" value="" style="ellipse;whiteSpace=wrap;html=1;" vertex="1" parent="1">
          <mxGeometry x="400" y="130" width="20" height="20" as="geometry" />
        </mxCell>
        <mxCell id="uDFf4PMlCEzV2VISxM60-65" value="" style="ellipse;whiteSpace=wrap;html=1;" vertex="1" parent="1">
          <mxGeometry x="490" y="128" width="20" height="20" as="geometry" />
        </mxCell>
      </root>
    </mxGraphModel>
  </diagram>
</mxfile>
